<svg xmlns="http://www.w3.org/2000/svg" viewBox="0 0 512 512">
  <rect width="512" height="512" rx="64" fill="#1a1a2e"/>
  
  <!-- T shadow 2 (border color) -->
  <g transform="translate(69.02713178294573,168.0) scale(0.12919896640826872,-0.12919896640826872) translate(0,-1516)">
    <path d="M-16 1198Q-16 1216 -14.0 1251.5Q-12 1287 -12 1300Q-12 1305 -14.0 1336.0Q-16 1367 -16 1390Q-16 1496 4 1496Q12 1496 18 1494Q227 1494 637.5 1499.0Q1048 1504 1252 1504Q1303 1504 1316.5 1495.0Q1330 1486 1330 1460V1432Q1330 1380 1331.0 1278.5Q1332 1177 1332 1124Q1332 1072 1304 1072Q1248 1072 1137.0 1074.0Q1026 1076 970 1076V4Q963 -26 936 -28Q901 -28 834.0 -27.0Q767 -26 732 -26Q730 -26 728 -28Q684 -28 604.5 -27.0Q525 -26 486 -26H426Q406 -28 368 -28L328 20Q328 172 338.0 472.0Q348 772 348 924Q348 931 347.5 947.0Q347 963 347.0 973.0Q347 983 345.5 998.0Q344 1013 340.5 1022.5Q337 1032 332.0 1041.5Q327 1051 318.5 1055.5Q310 1060 298 1060H12Q-16 1068 -16 1198Z" fill="#3a3a5c"/>
  </g>
  <!-- T shadow 1 (card-bg) -->
  <g transform="translate(65.02713178294573,164.0) scale(0.12919896640826872,-0.12919896640826872) translate(0,-1516)">
    <path d="M-16 1198Q-16 1216 -14.0 1251.5Q-12 1287 -12 1300Q-12 1305 -14.0 1336.0Q-16 1367 -16 1390Q-16 1496 4 1496Q12 1496 18 1494Q227 1494 637.5 1499.0Q1048 1504 1252 1504Q1303 1504 1316.5 1495.0Q1330 1486 1330 1460V1432Q1330 1380 1331.0 1278.5Q1332 1177 1332 1124Q1332 1072 1304 1072Q1248 1072 1137.0 1074.0Q1026 1076 970 1076V4Q963 -26 936 -28Q901 -28 834.0 -27.0Q767 -26 732 -26Q730 -26 728 -28Q684 -28 604.5 -27.0Q525 -26 486 -26H426Q406 -28 368 -28L328 20Q328 172 338.0 472.0Q348 772 348 924Q348 931 347.5 947.0Q347 963 347.0 973.0Q347 983 345.5 998.0Q344 1013 340.5 1022.5Q337 1032 332.0 1041.5Q327 1051 318.5 1055.5Q310 1060 298 1060H12Q-16 1068 -16 1198Z" fill="#242442"/>
  </g>
  <!-- T main -->
  <g transform="translate(57.02713178294573,156.0) scale(0.12919896640826872,-0.12919896640826872) translate(0,-1516)">
    <path d="M-16 1198Q-16 1216 -14.0 1251.5Q-12 1287 -12 1300Q-12 1305 -14.0 1336.0Q-16 1367 -16 1390Q-16 1496 4 1496Q12 1496 18 1494Q227 1494 637.5 1499.0Q1048 1504 1252 1504Q1303 1504 1316.5 1495.0Q1330 1486 1330 1460V1432Q1330 1380 1331.0 1278.5Q1332 1177 1332 1124Q1332 1072 1304 1072Q1248 1072 1137.0 1074.0Q1026 1076 970 1076V4Q963 -26 936 -28Q901 -28 834.0 -27.0Q767 -26 732 -26Q730 -26 728 -28Q684 -28 604.5 -27.0Q525 -26 486 -26H426Q406 -28 368 -28L328 20Q328 172 338.0 472.0Q348 772 348 924Q348 931 347.5 947.0Q347 963 347.0 973.0Q347 983 345.5 998.0Q344 1013 340.5 1022.5Q337 1032 332.0 1041.5Q327 1051 318.5 1055.5Q310 1060 298 1060H12Q-16 1068 -16 1198Z" fill="#ff6b2b" stroke="#3a3a5c" stroke-width="15.480000000000002"/>
  </g>
  
  <!-- K shadow 2 -->
  <g transform="translate(254.3113695090439,168.0) scale(0.12919896640826872,-0.12919896640826872) translate(0,-1516)">
    <path d="M160 -32Q138 -32 126.5 -27.5Q115 -23 111.5 -17.0Q108 -11 100 6V1428Q100 1450 100.5 1460.0Q101 1470 104.0 1483.5Q107 1497 113.5 1502.5Q120 1508 132.0 1512.0Q144 1516 162 1516H572Q716 1516 716 1480V1478Q712 1106 712 924L993 1509L1200 1508Q1624 1508 1624 1488Q1624 1484 1620 1484Q1426 1134 1226 788V760L1267 734L1685 15Q1685 -1 1662 -20H1020L734 538Q728 483 725.0 378.0Q722 273 720 240V4Q713 -32 600 -32Z" fill="#3a3a5c"/>
  </g>
  <!-- K shadow 1 -->
  <g transform="translate(250.3113695090439,164.0) scale(0.12919896640826872,-0.12919896640826872) translate(0,-1516)">
    <path d="M160 -32Q138 -32 126.5 -27.5Q115 -23 111.5 -17.0Q108 -11 100 6V1428Q100 1450 100.5 1460.0Q101 1470 104.0 1483.5Q107 1497 113.5 1502.5Q120 1508 132.0 1512.0Q144 1516 162 1516H572Q716 1516 716 1480V1478Q712 1106 712 924L993 1509L1200 1508Q1624 1508 1624 1488Q1624 1484 1620 1484Q1426 1134 1226 788V760L1267 734L1685 15Q1685 -1 1662 -20H1020L734 538Q728 483 725.0 378.0Q722 273 720 240V4Q713 -32 600 -32Z" fill="#242442"/>
  </g>
  <!-- K main -->
  <g transform="translate(242.3113695090439,156.0) scale(0.12919896640826872,-0.12919896640826872) translate(0,-1516)">
    <path d="M160 -32Q138 -32 126.5 -27.5Q115 -23 111.5 -17.0Q108 -11 100 6V1428Q100 1450 100.5 1460.0Q101 1470 104.0 1483.5Q107 1497 113.5 1502.5Q120 1508 132.0 1512.0Q144 1516 162 1516H572Q716 1516 716 1480V1478Q712 1106 712 924L993 1509L1200 1508Q1624 1508 1624 1488Q1624 1484 1620 1484Q1426 1134 1226 788V760L1267 734L1685 15Q1685 -1 1662 -20H1020L734 538Q728 483 725.0 378.0Q722 273 720 240V4Q713 -32 600 -32Z" fill="#2b3fff" stroke="#3a3a5c" stroke-width="15.480000000000002"/>
  </g>
  
  <!-- .com badge -->
  <g transform="rotate(12, 420, 85)">
    <rect x="350" y="65" width="100" height="36" rx="5" fill="#ff6b2b"/>
    <text x="400" y="90" font-family="monospace" font-weight="700" font-size="22" fill="white" text-anchor="middle">.com</text>
  </g>
</svg>
